<svg id="Calque_2" data-name="Calque 2" xmlns="http://www.w3.org/2000/svg" viewBox="0 0 286 82"><defs><style>.cls-1{font-size:28px;}.cls-1,.cls-3,.cls-5,.cls-6{font-family:Lato-Light, Lato;font-weight:300;}.cls-2{fill:#83b6d6;}.cls-3,.cls-5,.cls-6{font-size:61px;}.cls-3{letter-spacing:0.06em;}.cls-4,.cls-6{letter-spacing:0.1em;}.cls-5{letter-spacing:0.1em;}</style></defs><title>logo</title><text class="cls-1" transform="translate(11.11 25.47)">Musée du</text><path class="cls-2" d="M192.36,45.8l-2.36,4,5.63,9.35a1.65,1.65,0,0,0,.63.6,2.07,2.07,0,0,0,1.05.24L201,60Z"/><path class="cls-2" d="M174.74,16.7l-4.14,0-12.48,20,2.32,4,10.8-17.43a12.86,12.86,0,0,0,1.34-3,15.17,15.17,0,0,0,1.39,3l10.25,17,2.36-4Z"/><path class="cls-2" d="M152.24,46.09l-8.47,13.56,3.64,0a2.09,2.09,0,0,0,1.07-.23,2,2,0,0,0,.66-.58l5.45-8.78Z"/><text class="cls-3" transform="translate(7.49 75.08)">L<tspan class="cls-4" x="34.68" y="0">OU</tspan></text><text class="cls-5" transform="translate(147.39 75.08) scale(1.23 1)">V</text><text class="cls-6" transform="translate(203.02 75.08)">RE</text></svg>